<svg width="19" height="26" viewBox="0 0 19 26" fill="none" xmlns="http://www.w3.org/2000/svg">
<path d="M10.9845 1H8.01537C3.91585 1 0.592529 4.32332 0.592529 8.42284V17.6272C0.592529 21.7267 3.91585 25.05 8.01537 25.05H10.9845C15.084 25.05 18.4073 21.7267 18.4073 17.6272V8.42284C18.4073 4.32332 15.084 1 10.9845 1Z" stroke="white"/>
<path d="M9.42762 5.25586H9.40094C8.69036 5.25586 8.11432 5.8319 8.11432 6.54248V10.0688C8.11432 10.7794 8.69036 11.3554 9.40094 11.3554H9.42762C10.1382 11.3554 10.7142 10.7794 10.7142 10.0688V6.54248C10.7142 5.8319 10.1382 5.25586 9.42762 5.25586Z" fill="white"/>
</svg>
